<?xml version="1.0" standalone="no"?>
<!DOCTYPE svg PUBLIC "-//W3C//DTD SVG 20010904//EN"
 "http://www.w3.org/TR/2001/REC-SVG-20010904/DTD/svg10.dtd">
<svg version="1.0" xmlns="http://www.w3.org/2000/svg"
 width="900.000000pt" height="900.000000pt" viewBox="0 0 900.000000 900.000000"
 preserveAspectRatio="xMidYMid meet">

<g transform="translate(0.000000,900.000000) scale(0.100000,-0.100000)"
fill="#101010" stroke="none">
<path d="M897 6511 c-9 -10 -14 -131 -18 -420 -9 -555 -2 -3555 8 -3611 l8
-45 248 0 c162 -1 251 3 256 10 27 34 31 231 31 1586 0 767 3 1411 6 1432 9
50 36 50 66 -2 12 -21 35 -47 51 -57 30 -20 36 -28 162 -214 43 -63 104 -151
137 -195 160 -217 288 -384 340 -444 21 -24 54 -69 75 -100 20 -31 83 -119
140 -196 124 -169 447 -602 495 -665 19 -25 73 -97 121 -160 139 -187 245
-299 377 -399 84 -64 113 -81 252 -145 136 -63 176 -73 350 -87 120 -10 196
-10 349 -1 214 13 221 15 357 78 52 24 97 44 100 44 39 2 263 159 343 239 274
277 419 620 419 990 0 148 -14 228 -61 352 -11 30 -24 68 -29 84 -29 110 -89
221 -159 294 -54 58 -45 57 -150 18 -35 -12 -77 -40 -115 -76 -57 -52 -94 -71
-193 -97 -18 -5 -16 -57 6 -144 18 -70 24 -90 56 -180 47 -131 66 -313 46
-425 -34 -190 -76 -270 -212 -405 -89 -89 -116 -110 -175 -135 -38 -16 -94
-42 -124 -59 l-55 -31 -200 0 -200 1 -75 37 c-177 90 -196 103 -287 194 -51
51 -105 112 -120 135 -26 40 -138 190 -210 282 -18 23 -45 59 -60 81 -15 22
-113 155 -217 295 -202 272 -207 278 -306 410 -36 47 -82 110 -102 140 -21 30
-81 109 -134 175 -53 66 -117 152 -143 190 -127 187 -155 226 -176 247 -12 13
-62 77 -111 143 -49 67 -99 134 -111 150 -49 65 -229 308 -243 329 -8 12 -46
61 -85 109 -38 49 -84 111 -101 140 -17 29 -45 62 -62 73 -43 29 -153 43 -375
46 -145 3 -181 1 -190 -11z"/>
<path d="M7709 6499 c-9 -18 -12 -358 -14 -1463 -2 -1522 -2 -1502 -47 -1543
-26 -23 -44 -11 -77 52 -15 28 -47 79 -71 115 -51 76 -296 410 -337 459 -15
19 -42 55 -58 80 -98 147 -285 399 -365 491 -31 36 -92 117 -135 180 -43 63
-93 132 -112 153 -18 20 -33 40 -33 45 0 4 -13 21 -28 38 -15 17 -54 68 -87
113 -364 499 -447 596 -605 703 -47 31 -108 73 -135 92 -28 19 -77 43 -110 55
-33 11 -100 37 -150 57 -112 46 -220 57 -500 48 -219 -6 -264 -15 -398 -78
-53 -25 -101 -46 -105 -46 -15 0 -81 -37 -133 -76 -30 -21 -70 -50 -91 -64
-120 -81 -283 -267 -361 -414 -21 -39 -46 -82 -55 -96 -34 -51 -72 -173 -96
-306 -24 -134 -22 -439 3 -559 19 -87 65 -229 81 -250 18 -22 78 -152 84 -181
9 -41 30 -59 84 -74 24 -6 49 -13 57 -16 7 -3 44 21 81 53 111 94 191 153 239
174 l45 20 0 62 c0 80 -11 116 -55 182 -63 95 -68 119 -68 330 l-1 190 38 90
c67 159 164 286 280 369 61 43 147 86 172 86 13 0 39 10 119 47 56 25 323 27
351 2 11 -9 60 -33 109 -54 177 -75 290 -175 450 -400 17 -23 41 -56 55 -73
14 -17 37 -48 52 -69 15 -21 76 -105 137 -188 61 -82 117 -159 125 -170 8 -11
39 -53 68 -93 58 -80 83 -113 143 -190 40 -51 144 -188 200 -266 17 -22 48
-64 70 -93 22 -29 60 -82 85 -118 25 -37 63 -90 86 -118 22 -29 83 -108 134
-177 52 -69 115 -152 142 -185 26 -33 58 -73 71 -90 13 -16 46 -61 72 -100 27
-38 116 -160 199 -270 82 -110 174 -236 205 -280 63 -92 111 -154 160 -208
l34 -37 257 0 c194 0 260 3 267 12 31 41 33 136 33 2042 0 1100 -4 1928 -10
1950 -16 72 -12 71 -290 74 l-248 4 -13 -23z"/>
</g>
</svg>
